# xmcd
#
# Track frame offsets: 
#        182
#        15057
#        28267
#        41287
#        56327
#        72570
#        84495
#        98367
#        111267
#        122937
#        133937
#        146695
#        159420
#        171252
#        184052
#        196315
#        209630
#        223610
#        235320
#        248980
#        263902
#        276967
#        287530
#        298275
#        313645
#
# Disc length: 4391 seconds
#
# Revision: 12
# Processed by: cddbd v1.5.2PL0 Copyright (c) Steve Scherf et al.
# Submitted via: ExactAudioCopy v0.99pb4
#
DISCID=7d112519
DTITLE=Various Artist - Beg Scream And Shout - Beg 2
DYEAR=1997
DGENRE=Soul
TTITLE0=Dynamics - Ice Cream Song
TTITLE1=Otis Redding - I've Been Loving You Too Long
TTITLE2=Dells - Stay In My Corner
TTITLE3=Jackie Ross - Selfish One
TTITLE4=Eddie Holman - Hey There Lonely Girl
TTITLE5=William Bell - Everyday Will Be Like A Holiday
TTITLE6=Joe Hinton - Funny
TTITLE7=Aaron Neville - Wrong Number (I Am Sorry Goodbye)
TTITLE8=Tony Clarke - The Entertainer
TTITLE9=Leon Haywood - It's Got To Be Mellow
TTITLE10=Tyrone Davis - Can I Change My Mind
TTITLE11=Bobby Hebb - Sunny
TTITLE12=Intruders - Cowboys To Girls
TTITLE13=Dionne Warwick - Don't Make Me Over
TTITLE14=Maxine Brown - Oh No Not My Baby
TTITLE15=Bobby Womack - Fly Me To The Moon
TTITLE16=Billy Stewart - I Do Love You
TTITLE17=Radiants - Voice Your Choice
TTITLE18=James And Bobby Purify - I'm Your Puppet
TTITLE19=Esther Phillips - Release Me
TTITLE20=Gene Chandler - Rainbow
TTITLE21=Jay Wiggins - Sad Girl
TTITLE22=Irma Thomas - Wish Someone Would Care
TTITLE23=Ray Charles - In The Heat Of The Night
TTITLE24=Lorraine Ellison - Stay With Me
EXTD=
EXTT0=
EXTT1=
EXTT2=
EXTT3=
EXTT4=
EXTT5=
EXTT6=
EXTT7=
EXTT8=
EXTT9=
EXTT10=
EXTT11=
EXTT12=
EXTT13=
EXTT14=
EXTT15=
EXTT16=
EXTT17=
EXTT18=
EXTT19=
EXTT20=
EXTT21=
EXTT22=
EXTT23=
EXTT24=
PLAYORDER=
